# xmcd
#
# Track frame offsets:
#	150
#	43685
#	85838
#
# Disc length: 1236 seconds
#
# Revision: 0
# Processed by: cddbd v1.5.2PL0 Copyright (c) Steve Scherf et al.
# Submitted via: audiograbber 1.83.01
#
DISCID=1b04d203
DTITLE=Grateful Dead - 94-06-14 Seattle Centre Memorial Stadium, Seattle WA
DYEAR=1900
DGENRE=
TTITLE0=Standing On The Moon
TTITLE1=Sugar Magnolia
TTITLE2=Liberty
EXTD=
EXTT0=
EXTT1=
EXTT2=
PLAYORDER=
